<svg xmlns="http://www.w3.org/2000/svg" enable-background="new 0 0 500 500" viewBox="0 0 500 500" width="550" height="550"><rect width="500" height="500" fill="transparent" class="colorfff svgShape"></rect><path fill="#f7fafc" d="M84.5,180.6c0,0-31.1,12.5-40.4,44.3c-9.3,31.8,7.6,47.2,7.2,61.3c-0.4,14.1-15.8,30.8-14.6,54.4			C38,364.2,58.5,392,119.1,394c60.6,1.9,111.1,7.4,132.7,8.4c21.5,1.1,84.3,0.4,110.9-1.7c0,0,49.1,4.5,73.2-21.2
			c24.1-25.7,12.3-47.2,7.7-62.9c-4.6-15.8-2.4-34.3,4.3-53.4c6.7-19.1,0.5-67.8-39.9-84.9C367.4,161.2,185.2,234.3,84.5,180.6z" class="colorf7fafc svgShape"></path><rect width="370.3" height="185.8" x="63.5" y="97.9" fill="#d2e5ef" class="colord2e5ef svgShape"></rect><rect width="361.8" height="177.2" x="67.8" y="102.1" fill="#eff6f9" class="coloreff6f9 svgShape"></rect><line x1="72.2" x2="112.4" y1="156.9" y2="107.8" fill="none" stroke="#f3f6f9" stroke-linecap="round" stroke-linejoin="round" stroke-miterlimit="10" stroke-width="1.42" class="colorStrokef3f6f9 svgStroke"></line><line x1="70.4" x2="131.8" y1="180.9" y2="107.8" fill="none" stroke="#f3f6f9" stroke-linecap="round" stroke-linejoin="round" stroke-miterlimit="10" stroke-width="1.42" class="colorStrokef3f6f9 svgStroke"></line><line x1="169.6" x2="78" y1="124.7" y2="250.2" fill="none" stroke="#f3f6f9" stroke-linecap="round" stroke-linejoin="round" stroke-miterlimit="10" stroke-width="1.42" class="colorStrokef3f6f9 svgStroke"></line><line x1="118.4" x2="184.7" y1="272.2" y2="178.1" fill="none" stroke="#f3f6f9" stroke-linecap="round" stroke-linejoin="round" stroke-miterlimit="10" stroke-width="1.42" class="colorStrokef3f6f9 svgStroke"></line><line x1="230.6" x2="184.7" y1="105.8" y2="166.9" fill="none" stroke="#f3f6f9" stroke-linecap="round" stroke-linejoin="round" stroke-miterlimit="10" stroke-width="1.42" class="colorStrokef3f6f9 svgStroke"></line><line x1="293.2" x2="189.3" y1="105.8" y2="242.8" fill="none" stroke="#f3f6f9" stroke-linecap="round" stroke-linejoin="round" stroke-miterlimit="10" stroke-width="1.42" class="colorStrokef3f6f9 svgStroke"></line><line x1="311.7" x2="237.2" y1="152.3" y2="248.9" fill="none" stroke="#f3f6f9" stroke-linecap="round" stroke-linejoin="round" stroke-miterlimit="10" stroke-width="1.42" class="colorStrokef3f6f9 svgStroke"></line><line x1="310.2" x2="246.9" y1="171.5" y2="252.5" fill="none" stroke="#f3f6f9" stroke-linecap="round" stroke-linejoin="round" stroke-miterlimit="10" stroke-width="1.42" class="colorStrokef3f6f9 svgStroke"></line><line x1="269.1" x2="303.2" y1="275.5" y2="231.9" fill="none" stroke="#f3f6f9" stroke-linecap="round" stroke-linejoin="round" stroke-miterlimit="10" stroke-width="1.42" class="colorStrokef3f6f9 svgStroke"></line><line x1="368.1" x2="317.9" y1="112.2" y2="171.5" fill="none" stroke="#f3f6f9" stroke-linecap="round" stroke-linejoin="round" stroke-miterlimit="10" stroke-width="1.42" class="colorStrokef3f6f9 svgStroke"></line><line x1="390.3" x2="330.9" y1="105.8" y2="176" fill="none" stroke="#f3f6f9" stroke-linecap="round" stroke-linejoin="round" stroke-miterlimit="10" stroke-width="1.42" class="colorStrokef3f6f9 svgStroke"></line><line x1="419.5" x2="336.5" y1="120.7" y2="209.4" fill="none" stroke="#f3f6f9" stroke-linecap="round" stroke-linejoin="round" stroke-miterlimit="10" stroke-width="1.42" class="colorStrokef3f6f9 svgStroke"></line><line x1="422.3" x2="348.8" y1="190.2" y2="271.4" fill="none" stroke="#f3f6f9" stroke-linecap="round" stroke-linejoin="round" stroke-miterlimit="10" stroke-width="1.42" class="colorStrokef3f6f9 svgStroke"></line><line x1="419.9" x2="379.9" y1="233.9" y2="275.5" fill="none" stroke="#f3f6f9" stroke-linecap="round" stroke-linejoin="round" stroke-miterlimit="10" stroke-width="1.42" class="colorStrokef3f6f9 svgStroke"></line><line x1="425.1" x2="390.1" y1="237.1" y2="274.8" fill="none" stroke="#f3f6f9" stroke-linecap="round" stroke-linejoin="round" stroke-miterlimit="10" stroke-width="1.42" class="colorStrokef3f6f9 svgStroke"></line><line x1="184.7" x2="184.7" y1="100.4" y2="280.9" fill="none" stroke="#d2e5ef" stroke-miterlimit="10" stroke-width="1.988" class="colorStroked2e5ef svgStroke"></line><line x1="314.5" x2="314.5" y1="100.4" y2="280.9" fill="none" stroke="#d2e5ef" stroke-miterlimit="10" stroke-width="1.988" class="colorStroked2e5ef svgStroke"></line><g fill="#000000" class="color000 svgShape"><polygon fill="#bfd7e2" points="297.7 396.7 297.7 318.6 291 318.6 291 350.5 84.6 350.5 84.6 319.1 77.9 319.1 77.9 397.2 61.1 397.2 61.1 406.7 100.4 406.7 100.4 397.2 84.6 397.2 84.6 356.9 291 356.9 291 396.7 274.2 396.7 274.2 406.2 313.5 406.2 313.5 396.7" class="colorbfd7e2 svgShape"></polygon><path fill="#d2e5ef" d="M319.9,291.3H54.4c-2.9,0-5.2,2.3-5.2,5.2v12.6c0,2.9,2.3,5.2,5.2,5.2h265.5c2.9,0,5.2-2.3,5.2-5.2v-12.6
					C325.1,293.6,322.8,291.3,319.9,291.3z" class="colord2e5ef svgShape"></path><rect width="260.7" height="4.8" x="56.8" y="314.3" fill="#c0dae7" class="colorc0dae7 svgShape"></rect><g fill="#000000" class="color000 svgShape"><path fill="#bfd3dd" d="M110.8,291.3H93.2c-1.4,0-2.5-1.1-2.5-2.5v-33.4c0-1.4,1.1-2.5,2.5-2.5h17.6c1.4,0,2.5,1.1,2.5,2.5v33.4
					C113.3,290.2,112.2,291.3,110.8,291.3z" class="colorbfd3dd svgShape"></path><rect width="14.7" height="5.5" x="94.7" y="247.5" fill="#a1bbc6" class="colora1bbc6 svgShape"></rect><path fill="#8aa8b2" d="M103.2,242.8l-4-0.6c-0.7-0.1-1.3,0.4-1.3,1.1v4.2h6v-3.9C103.8,243.2,103.6,242.8,103.2,242.8z" class="color8aa8b2 svgShape"></path><path fill="#daecf2" d="M100.9,261.3c-4.5-1.9-7.9-1.5-10.1-0.7v25.9c0,2.7,2.2,4.8,4.8,4.8h12.8c2.7,0,4.8-2.2,4.8-4.8v-23.9
					C110.3,263.1,105.9,263.4,100.9,261.3z" class="colordaecf2 svgShape"></path></g></g><g fill="#000000" class="color000 svgShape"><circle cx="269.1" cy="382.8" r="14.8" fill="#f0faff" transform="rotate(-67.282 269.094 382.815)" class="colorf0faff svgShape"></circle><circle cx="270.2" cy="382.8" r="12.1" fill="#abcddd" class="colorabcddd svgShape"></circle><circle cx="288.4" cy="383.5" r="25.3" fill="#daedf8" transform="rotate(-5.846 288.293 383.499)" class="colordaedf8 svgShape"></circle><path fill="#abcddd" d="M267.8,383.5c0-13.2,10.1-24,22.9-25.2c-0.8-0.1-1.6-0.1-2.4-0.1c-14,0-25.3,11.3-25.3,25.3
				s11.3,25.3,25.3,25.3c0.8,0,1.6,0,2.4-0.1C277.9,407.4,267.8,396.6,267.8,383.5z" class="colorabcddd svgShape"></path><rect width="110.9" height="3.6" x="291.7" y="381.7" fill="#abcddb" class="colorabcddb svgShape"></rect><circle cx="425.1" cy="383.5" r="25.3" fill="#daedf8" transform="rotate(-13.832 425.074 383.451)" class="colordaedf8 svgShape"></circle><path fill="#abcddd" d="M404.5,383.5c0-13.2,10.1-24,22.9-25.2c-0.8-0.1-1.6-0.1-2.4-0.1c-14,0-25.3,11.3-25.3,25.3
				s11.3,25.3,25.3,25.3c0.8,0,1.6,0,2.4-0.1C414.6,407.4,404.5,396.6,404.5,383.5z" class="colorabcddd svgShape"></path><circle cx="431.3" cy="382.8" r="15.1" fill="#f0faff" class="colorf0faff svgShape"></circle><path fill="#abcddd" d="M434.4,396.4c-7.5,0-13.6-6.1-13.6-13.6c0-7.5,6.1-13.6,13.6-13.6c1.9,0,3.7,0.4,5.3,1.1
				c-2.4-1.6-5.3-2.6-8.4-2.6c-8.3,0-15.1,6.8-15.1,15.1c0,8.3,6.8,15.1,15.1,15.1c3.1,0,6-0.9,8.4-2.6
				C438.1,396,436.3,396.4,434.4,396.4z" class="colorabcddd svgShape"></path><path fill="#abcddb" d="M439.3,381h-8v3.6h8c0.6,0,1.2-0.5,1.2-1.2v-1.3C440.5,381.5,439.9,381,439.3,381z" class="colorabcddb svgShape"></path></g><g fill="#000000" class="color000 svgShape"><path fill="#abcddb" d="M369.3,361.7c0,0-10.8-8.1,0-27.6c9.9-17.7,41.3-30.5,41.3-30.5s-5.1,15.7-9.7,27.6
					C396.3,343.2,389,364.7,369.3,361.7z" class="colorabcddb svgShape"></path><path fill="#71a052" d="M369.3,361.7c0,0-10.8-8.1,0-27.6c9.9-17.7,41.3-30.5,41.3-30.5s-5.1,15.7-9.7,27.6
					C396.3,343.2,389,364.7,369.3,361.7z" class="color71a052 svgShape"></path><path fill="#8abc69" d="M349.6 358.8c0 0-20.6-1.3-28.1-16.3-7.5-15-10.2-27.9-10.2-27.9s9.2-2.6 25.1 9.5C352.7 336.6 352.3 353.1 349.6 358.8zM360.7 348.6c-1.3 0-2.6-.6-3.5-1.6-2.6-3.1-7.7-11.9-3.1-29.9 3.9-15.2 29.8-39.2 37.1-47 0 0 2.2 37.9-8.7 57.5C372.4 345.9 364.4 348.6 360.7 348.6z" class="color8abc69 svgShape"></path><path fill="none" stroke="#6ca04a" stroke-linecap="round" stroke-linejoin="round" stroke-miterlimit="10" stroke-width=".71" d="M382.8 287.2c0 0-29.4 52.8-24 82.9M322 325.6c0 0 29.6 24.5 30.3 44.6M319.8 330.2c.3 0 8 .6 8 .6" class="colorStroke6ca04a svgStroke"></path><line x1="326.5" x2="326.6" y1="324.5" y2="329.7" fill="none" stroke="#6ca04a" stroke-linecap="round" stroke-linejoin="round" stroke-miterlimit="10" stroke-width=".71" class="colorStroke6ca04a svgStroke"></line><path fill="none" stroke="#6ca04a" stroke-linecap="round" stroke-linejoin="round" stroke-miterlimit="10" stroke-width=".71" d="M331.6 327.4c0 0 .6 6.4.5 7.7M325.3 337.2c.2 0 6.8.1 8.5-.4" class="colorStroke6ca04a svgStroke"></path><line x1="332.4" x2="341.4" y1="347.4" y2="345.8" fill="none" stroke="#6ca04a" stroke-linecap="round" stroke-linejoin="round" stroke-miterlimit="10" stroke-width=".71" class="colorStroke6ca04a svgStroke"></line><line x1="338.5" x2="338.8" y1="335.9" y2="342.6" fill="none" stroke="#6ca04a" stroke-linecap="round" stroke-linejoin="round" stroke-miterlimit="10" stroke-width=".71" class="colorStroke6ca04a svgStroke"></line><path fill="none" stroke="#6ca04a" stroke-linecap="round" stroke-linejoin="round" stroke-miterlimit="10" stroke-width=".71" d="M346 341.3c0 0-.1 8-.7 10.1M340.2 354.1c0 0 4.6.5 6.7 0M357 331.7c0 0 2.2 7.6 4.1 9.1M370.9 335.5c0 0-6.9 1.4-8.7 1.5M362.2 317.6c0 0 1 7.2 2.9 10.1M375.4 325.6c0 0-7.4 3-10.7 3.1" class="colorStroke6ca04a svgStroke"></path><line x1="370.1" x2="372.1" y1="302" y2="309.4" fill="none" stroke="#6ca04a" stroke-linecap="round" stroke-linejoin="round" stroke-miterlimit="10" stroke-width=".71" class="colorStroke6ca04a svgStroke"></line><line x1="379.3" x2="370.1" y1="310.9" y2="314.3" fill="none" stroke="#6ca04a" stroke-linecap="round" stroke-linejoin="round" stroke-miterlimit="10" stroke-width=".71" class="colorStroke6ca04a svgStroke"></line><line x1="377.3" x2="377.5" y1="291.3" y2="297.6" fill="none" stroke="#6ca04a" stroke-linecap="round" stroke-linejoin="round" stroke-miterlimit="10" stroke-width=".71" class="colorStroke6ca04a svgStroke"></line><line x1="384.2" x2="375.8" y1="296.6" y2="301.1" fill="none" stroke="#6ca04a" stroke-linecap="round" stroke-linejoin="round" stroke-miterlimit="10" stroke-width=".71" class="colorStroke6ca04a svgStroke"></line><path fill="none" stroke="#568936" stroke-linecap="round" stroke-linejoin="round" stroke-miterlimit="10" stroke-width=".71" d="M397.8 316.8c0 0-26.4 38.9-32.8 53.3M370.9 348.7c0 0 1.1 4.4 2.2 6.7 0 0 1.8.8 5.4 0" class="colorStroke568936 svgStroke"></path><line x1="378.5" x2="378.8" y1="338.6" y2="345.9" fill="none" stroke="#568936" stroke-linecap="round" stroke-linejoin="round" stroke-miterlimit="10" stroke-width=".71" class="colorStroke568936 svgStroke"></line><path fill="none" stroke="#568936" stroke-linecap="round" stroke-linejoin="round" stroke-miterlimit="10" stroke-width=".71" d="M385,348.7c0,0-4.9,0.3-7.4-0.8" class="colorStroke568936 svgStroke"></path><line x1="388.4" x2="382.8" y1="340.4" y2="339.6" fill="none" stroke="#568936" stroke-linecap="round" stroke-linejoin="round" stroke-miterlimit="10" stroke-width=".71" class="colorStroke568936 svgStroke"></line><path fill="none" stroke="#568936" stroke-linecap="round" stroke-linejoin="round" stroke-miterlimit="10" stroke-width=".71" d="M387.6 324.3c0 0-.4 6.6 0 8M399 329.2c0 0-6.8 1.3-9.9.7" class="colorStroke568936 svgStroke"></path><polygon fill="#79154d" points="341.7 377 347.1 406.3 374.2 406.3 379.7 377" class="color79154d svgShape"></polygon><polygon fill="#8c2863" points="338.9 379.3 382.1 379.3 384.8 366.4 337.1 366.4" class="color8c2863 svgShape"></polygon></g><g fill="#000000" class="color000 svgShape"><path fill="#79154d" d="M259.4 387.2c0 0-5.4 7.8-2.9 18.7h35.4c1.4 0 2.3-1.4 1.8-2.7-1.8-4.3-5.7-12.4-9.4-16.1H259.4zM164.6 384.3l1.6 8.1c0 0-10.4 5.1-13.9 10.4-.9 1.3.1 3.1 1.7 3.1h50.2c0 0 1.1-14.8-4.8-20.6L164.6 384.3z" class="color79154d svgShape"></path><line x1="282.9" x2="230.1" y1="257.8" y2="257.8" fill="none" stroke="#b21f1f" stroke-linecap="round" stroke-miterlimit="10" stroke-width="1.302" class="colorStrokeb21f1f svgStroke"></line><path fill="#5987cc" d="M219,257.8c0,0-62.3,18.4-71,25.3c-8.7,6.9-9.4,17.2-6.9,30c2.5,12.8,18.1,65.6,18.1,65.6s-3.6,1.9-2.8,5
				c0.8,3.1,5.5,2.8,5.5,2.8h39.8c0,0,3.7-0.3,3.9-3.3c0.2-3-3.1-3.7-3.1-3.7L187.8,310l51.5-17.9l11.3,4.3c0,0-1.7,24.3,2.7,39.3
				c0,0,1.9,37.9,3.3,43.7c0,0-4.2,1-4,4.8c0.2,3.7,4,4.1,4,4.1H291c0,0,1-1.2,1-3.5c0-2.3-3.9-4.7-3.9-4.7s6.1-57.3,6.6-77.9
				s-4-23.3-4-23.3s-3.3-16-9.2-22.3L219,257.8z" class="color5987cc svgShape"></path><path fill="#76a3e5" d="M290.8,278.8c0,0-3.3-16-9.2-22.3l-6.4,0.1c2.5,2,8.9,7.8,10.9,19.3c0,0,3.6,3.5,5.2,24.2
				c1.6,20.7-5.9,78.1-5.9,78.1l2.8,1.7c0,0,6.1-57.3,6.6-77.9S290.8,278.8,290.8,278.8z" class="color76a3e5 svgShape"></path><circle cx="99.9" cy="184.1" r="23.3" fill="#8bbdc6" transform="rotate(-13.144 99.868 184.132)" class="color8bbdc6 svgShape"></circle><circle cx="101.1" cy="184.1" r="18.4" fill="#7eb0bc" class="color7eb0bc svgShape"></circle><circle cx="129.6" cy="185" r="40.1" fill="#5c8f9b" transform="rotate(-27.89 129.628 185)" class="color5c8f9b svgShape"></circle><path fill="#6d9faf" d="M96.4,185c0-21,16.1-38.2,36.7-39.9c-1.1-0.1-2.3-0.2-3.4-0.2c-22.1,0-40.1,17.9-40.1,40.1
				c0,22.1,17.9,40.1,40.1,40.1c1.2,0,2.3-0.1,3.4-0.2C112.5,223.2,96.4,206,96.4,185z" class="color6d9faf svgShape"></path><rect width="174.7" height="5.9" x="135.6" y="180.1" fill="#abcddb" class="colorabcddb svgShape"></rect><path fill="none" stroke="#e26060" stroke-linecap="round" stroke-miterlimit="10" stroke-width=".868" d="M276.3,186.1c0,0-4.3,23-5.1,27c-0.8,4-3.2,19.2-3.2,19.2" class="colorStrokee26060 svgStroke"></path><path fill="#e05353" d="M229.8,186l-8.5,2.7l-11.5,33.6l5.3,6.5c0,0,2.3,16,2.6,17.9c0,0-4.6,3.9-3.5,7.6c1,3.7,4.8,3.5,4.8,3.5
				h63.9c0,0,3.9-1.9,4.7-5.1c0.8-3.2-4-5.3-4-5.3l1.7-23.5l-3.8-37.8h-12l-32.4,10.7L229.8,186z" class="colore05353 svgShape"></path><line x1="218.1" x2="273.1" y1="246.6" y2="246.6" fill="none" stroke="#b21f1f" stroke-linecap="round" stroke-miterlimit="10" stroke-width="1.302" class="colorStrokeb21f1f svgStroke"></line><path fill="#f9c1c0" d="M245.6 186h-15.9c0 0-7.6 19.5 16.3 21.6l10.4-16L245.6 186zM223.7 140.4c0 0-5.5 11.3-2 22.3 3.4 10.9 13.9 14.2 13.9 14.2l.7 3.3h18.6l-1.5-8.9 2-2.1c0 0 8.2-2.1 11.3-7.8 3.7-7-1.2-10.5-1.2-10.5l-12.9-13.4C252.4 137.5 230.4 136.8 223.7 140.4z" class="colorf9c1c0 svgShape"></path><path fill="#f4807d" d="M262.3,156.2c0,0,1.3,0,1.7,1.8s-2.6,4.9-3.9,4.6C258.6,162.4,258.1,158,262.3,156.2z" opacity=".33" class="colorf4807d svgShape"></path><path fill="#79154d" d="M252.3,143.4c0,0-1.5,8.4,5.3,12.1c0,0,2.3-4.8,7.7-4.6l0.5-4.5c0,0,2-0.1,1.6-3c0,0,0.8-1.1,0.8-2.8
				c-0.1-1.7-3.4-3.1-3.4-3.1s1.8-6.6-5.5-6.6c0,0-1-6.6-8.7-5.3c0,0-2.2-3.5-5.8-3.9c-3.6-0.3-5.8,2.7-5.8,2.7s-5.5-1.9-6.4,2.3
				c0,0-6.4-0.2-8.3,3.7c-1.4,3,0.9,5.1,0.9,5.1S245.8,137.8,252.3,143.4z" class="color79154d svgShape"></path><path fill="#5987cc" d="M225.3,135.5c0,0,22.8-4.2,40.6,10.8l-0.5,4.5c0,0-16.2-14.5-41.6-10.5
				C223.7,140.4,223.4,137.3,225.3,135.5z" class="color5987cc svgShape"></path><path fill="#79154d" d="M226 143.1c0 0 3.5 1.3 5.2 3.1 0 0 .9-.3.8-1.6 0 0-2.1-2.3-5.3-2.8C226.7 141.9 226.2 142 226 143.1zM240.4 147.5c0 0 5.4-2.8 8.1-2.8 0 0-.2-.8-1.2-1.2 0 0-3.5-.3-7.1 2.5C240 146 239.6 147 240.4 147.5zM230.1 150.7c0 1.6-.5 2.9-1.1 2.9-.6 0-1.1-1.3-1.1-2.9 0-1.6.5-2.9 1.1-2.9C229.6 147.7 230.1 149 230.1 150.7zM244.8 151.5c0 1.6-.5 2.9-1.1 2.9s-1.1-1.3-1.1-2.9.5-2.9 1.1-2.9S244.8 149.8 244.8 151.5z" class="color79154d svgShape"></path><path fill="none" stroke="#e26060" stroke-linecap="round" stroke-miterlimit="10" stroke-width="1.302" d="M235.3 150.8l-.4 3.5c0 0-3.6.6-3.6 2.6 0 2 4.1 2.6 4.1 2.6M263.2 155.9c0 0-4 .9-5.1 5.5M262.7 158.9c0 0-1.5-1-3.2-.5" class="colorStrokee26060 svgStroke"></path><path fill="#e26060" d="M234.2,164.9c4.6,0.1,9.2-1.4,12.8-4.3c0.5-0.4,1.1,0.4,0.6,0.8c-2.7,2.5-6.2,4.1-9.9,4.6
					c-1.2,0.2-2.4,0.2-3.7,0.1c-0.3,0-0.5-0.3-0.5-0.6C233.6,165.1,233.9,164.8,234.2,164.9L234.2,164.9z" class="colore26060 svgShape"></path><path fill="none" stroke="#e26060" stroke-linecap="round" stroke-miterlimit="10" stroke-width=".868" d="M236.2,177.1c0,0,5.9,1.6,9.4-0.9" class="colorStrokee26060 svgStroke"></path><path fill="#f9c1c0" d="M247.3 192.8l-1-1-.6-16.1c0 0 .6-1.6 2.7-1.3 2.1.3 2.3 2.6 2.3 2.6s3.4-5.3 5.2-5.5c1.9-.2 3.2 1.4 3.2 1.4s.9-1.5 2.8-1.4 2.7 1.4 2.7 1.4 4.6-2.7 7.2.6c0 0 1.1-.5 2.5.4 1.4.9 2.8 5.1 2.8 7h-3.2c0 0-3.6 4.6-5.2 4.8-1.6.2-4.1-1.1-3.4-2.9 0 0-3.7 1.5-4.6-1 0 0-2.1 2.3-4 2-2-.4-2.1-2.3-2.1-2.3s-1.1 1.3-2.5 1.4l3.5 3.5h20.7l-1.6 9.3 4.3-3.1c0 0 1.1-5.3 2.6-6.2h3c0 0 7.8 4.6 10.3 12.3 2.5 7.7-3 22.2-4.4 24.4-1.4 2.2-10.2 12.8-18 16.9-7.8 4.1-17.6 12.1-25.9 7.3-9.4-5.3-7.6-20.1-5.6-28C242.9 211.1 247.3 192.8 247.3 192.8zM215.1 228.8c-2.3-17.8 6.1-40.1 6.1-40.1s-6.7 2.8-9.8 4.8c-3.1 2-10 6.8-10 6.8l1.4-7c0 0 3.3-1.1 4.3-2.4.9-1.2 7.2-11 7.5-12 .3-.9-1.9-3.4-3.2-3-1.4.4-2.8 1.9-2.8 1.9s-3.9-7.1-8.7-4.5c0 0-4-3.5-8.1-.6 0 0-2.8-2.7-6.2 0 0 0-2.2-1-3.9-.1-1.7.9-4.4 5.9-4.9 6.5-.5.5 1.6 3.6 4.7 1.7 0 0 .5 1.9 2.1 2.3 1.6.4 3.7 0 4.7-1.7 0 0 1.5 1.7 3.1 1.5 1.7-.2 2.6-2.3 2.6-2.3s-1.5 2.9 0 3.7c1.5.8 4.8 0 6.5-3.7h5.3l-5.2 5-5.8.5h-20.3c0 0-1.2 3.9.9 6.7 0 0-5.9 18.7-8 33.7-2 15 3.1 22.4 13.1 21.4C191.2 246.7 215.1 228.8 215.1 228.8z" class="colorf9c1c0 svgShape"></path><path fill="none" stroke="#e26060" stroke-linecap="round" stroke-miterlimit="10" stroke-width=".868" d="M249.9 195c0 0-3.6-2.7-3.6-3.3 0-.7-.6-16.1-.6-16.1s.7-1.9 2.7-1.3c2 .5 2.3 2.6 2.3 2.6M259 172.8c0 0-2.6 2.8-4.5 8.4 0 0 .2 2.1 2.1 2.3 1.9.2 3.5-1.5 3.5-1.5" class="colorStrokee26060 svgStroke"></path><path fill="none" stroke="#e26060" stroke-linecap="round" stroke-miterlimit="10" stroke-width=".868" d="M258.9 189.8c0 0-7-6.9-8.8-8.4-.2-.2-.3-.5-.3-.7.2-.9.6-3.1 1.5-4.9.6-1.2 1.6-2.4 2.5-3.2M264.5 172.7c0 0-3.6 4.5-4.4 6.3-.8 1.8.3 4 2.2 3.9.8 0 1.5-.1 1.9-.2.6-.1 1.1-.4 1.4-1 1-1.8 3.7-6.3 6.1-8.5M251.4 182.6c0 0 2 .3 3.1-1.5M265.2 182.6c0 0-.5 1.7 1.3 2.6 1.8.9 3 .1 3.9-.8.9-.9 4.7-5.7 4.7-5.7M247.7 193.3c0 0-4.8 17.2-7 26.6M283.4 189.8c0 0-5.7 2.5-8.7 5.5M211 204.1c0 .5 3.1 16.3 3.1 16.3M188.7 189.7c0 0 4.7-5.3 11.8-4.3 0 0 8.4-8.1 9.3-8.7" class="colorStrokee26060 svgStroke"></path><path fill="none" stroke="#e26060" stroke-linecap="round" stroke-miterlimit="10" stroke-width=".868" d="M199.5,173.4c0,0-4.3,4-5.6,7c-1.4,3.1-0.2,5.2,2.8,3.7c3-1.5,3.6-4.7,5.8-5.7" class="colorStrokee26060 svgStroke"></path><line x1="205.6" x2="200.5" y1="180.5" y2="180.5" fill="none" stroke="#e26060" stroke-linecap="round" stroke-miterlimit="10" stroke-width=".868" class="colorStrokee26060 svgStroke"></line><path fill="none" stroke="#e26060" stroke-linecap="round" stroke-miterlimit="10" stroke-width=".868" d="M191.7,172.7c0,0-3.5,4.7-4.3,6c-0.8,1.3,0.2,3,2.5,3.8c2.3,0.8,3.6-1.2,3.6-1.2" class="colorStrokee26060 svgStroke"></path><path fill="none" stroke="#e26060" stroke-linecap="round" stroke-miterlimit="10" stroke-width=".868" d="M185.4,172.7c0,0-3.4,5.4-4,6.8c-0.6,1.5,0.4,3.1,2.3,3.6c2.5,0.7,4.1-1.4,4.1-1.4" class="colorStrokee26060 svgStroke"></path><path fill="none" stroke="#e26060" stroke-linecap="round" stroke-miterlimit="10" stroke-width=".868" d="M180.6 173.4l-3.4 4.9c-.3.5-.4 1.1-.1 1.6.3.5.8 1.1 1.6 1.3 1.5.5 2.7-.5 2.7-.5M177.6 194.9c0 0-3.7-1.4-3.7-7.2M195.1 232.5l7.7-39.3c0 0 3.1-.6 4.3-2.4 1.2-1.8 3.5-5.3 3.5-5.3" class="colorStrokee26060 svgStroke"></path><path fill="#f4807d" d="M241.3,180.1c2.9-1.5,3.9-3.6,3.9-3.6c-5.4,2.3-9.6,0.4-9.6,0.4l0.6,3.2H241.3z" opacity=".33" class="colorf4807d svgShape"></path><circle cx="350.9" cy="183.5" r="41.6" fill="#6d9faf" transform="rotate(-45.001 350.929 183.518)" class="color6d9faf svgShape"></circle><path fill="#5c8f9b" d="M317.8,183.5c0-21.5,16.4-39.3,37.4-41.4c-1.4-0.1-2.8-0.2-4.2-0.2c-23,0-41.6,18.6-41.6,41.6
				c0,23,18.6,41.6,41.6,41.6c1.4,0,2.8-0.1,4.2-0.2C334.2,222.8,317.8,205.1,317.8,183.5z" class="color5c8f9b svgShape"></path><circle cx="361.3" cy="182.8" r="24.2" fill="#8bbdc6" transform="rotate(-8.31 361.314 182.744)" class="color8bbdc6 svgShape"></circle><path fill="#7eb0bc" d="M365.5,205c-12.2,0-22.2-9.9-22.2-22.2c0-12.2,9.9-22.2,22.2-22.2c3.4,0,6.7,0.8,9.6,2.2
				c-3.9-2.7-8.6-4.3-13.7-4.3c-13.4,0-24.2,10.8-24.2,24.2c0,13.4,10.8,24.2,24.2,24.2c5.1,0,9.8-1.6,13.7-4.3
				C372.1,204.2,368.9,205,365.5,205z" class="color7eb0bc svgShape"></path><path fill="#abcddb" d="M376.5,180.1h-12.3v5.9h12.5c0.7,0,1.3-0.6,1.3-1.3v-3.2C377.9,180.7,377.2,180.1,376.5,180.1z" class="colorabcddb svgShape"></path><line x1="202.5" x2="173.4" y1="379.5" y2="379.5" fill="none" stroke="#396099" stroke-linecap="round" stroke-linejoin="round" stroke-miterlimit="10" stroke-width="1.302" class="colorStroke396099 svgStroke"></line><line x1="235.1" x2="250.6" y1="289.4" y2="296.4" fill="none" stroke="#396099" stroke-linecap="round" stroke-linejoin="round" stroke-miterlimit="10" stroke-width="1.302" class="colorStroke396099 svgStroke"></line><line x1="258.1" x2="274" y1="380" y2="380" fill="none" stroke="#396099" stroke-linecap="round" stroke-linejoin="round" stroke-miterlimit="10" stroke-width="1.302" class="colorStroke396099 svgStroke"></line><path fill="none" stroke="#396099" stroke-linecap="round" stroke-linejoin="round" stroke-miterlimit="10" stroke-width="1.302" d="M252,329.8c0,0-3.5-30.3,1.9-42c5.3-11.7,16.4-15.3,24.7-14.1c8.3,1.2,12.1,4.5,13.9,7.5" class="colorStroke396099 svgStroke"></path><line x1="207.3" x2="239.3" y1="303.2" y2="292.1" fill="none" stroke="#396099" stroke-linecap="round" stroke-linejoin="round" stroke-miterlimit="10" stroke-width="1.302" class="colorStroke396099 svgStroke"></line><path fill="none" stroke="#59113c" stroke-linecap="round" stroke-miterlimit="10" stroke-width="1.302" d="M157.8 395.8c0 0 3.7 2 5.6 3.9M160.6 393.3c.2.2 3.9 1.7 7.1 4.9M266 399.4c0 0 7.4-3.3 15.3 0M265.1 396.5c0 0 8.1-3.5 16.2 0" class="colorStroke59113c svgStroke"></path></g><line x1="52.3" x2="466.8" y1="407.2" y2="407.2" fill="none" stroke="#6d9faf" stroke-linecap="round" stroke-linejoin="round" stroke-miterlimit="10" stroke-width="1.529" class="colorStroke6d9faf svgStroke"></line><g fill="#000000" class="color000 svgShape"><circle cx="173.4" cy="103.1" r="25.7" fill="#e05353" transform="rotate(-45.001 173.409 103.122)" class="colore05353 svgShape"></circle><path fill="none" stroke="#fff" stroke-linecap="round" stroke-linejoin="round" stroke-miterlimit="10" stroke-width="1.1" d="M186.2,102.9c0,7-5.7,12.7-12.7,12.7c-7,0-12.7-5.7-12.7-12.7c0-7,5.7-12.7,12.7-12.7
					C180.5,90.2,186.2,95.9,186.2,102.9z" class="colorStrokefff svgStroke"></path><path fill="#ffffff" d="M175.5 90.2h-4v-2.6c0-.7.6-1.4 1.4-1.4h1.3c.7 0 1.4.6 1.4 1.4V90.2zM163.9 93.6l-1.1 1.4-1.5-1.2c-.3-.3-.4-.8-.1-1.1l.1-.1c.3-.3.8-.4 1.1-.1L163.9 93.6z" class="colorfff svgShape"></path><polyline fill="none" stroke="#fff" stroke-linecap="round" stroke-linejoin="round" stroke-miterlimit="10" stroke-width="1.1" points="173.4 95.6 173.4 102.9 180.2 102.9"></polyline></g></svg>