<svg id="SvgjsSvg1119" width="550" height="550" xmlns="http://www.w3.org/2000/svg" version="1.1" xmlns:xlink="http://www.w3.org/1999/xlink" xmlns:svgjs="http://svgjs.com/svgjs"><defs id="SvgjsDefs1120"></defs><g id="SvgjsG1121"><svg xmlns="http://www.w3.org/2000/svg" enable-background="new 0 0 500 500" viewBox="0 0 500 500" width="550" height="550"><path fill="transparent  " d="M0 0h500v500H0z" class="colorfff svgShape"></path><path fill="#f7fafc" d="M72.3 402.2s-18.2-14.9-19.3-34c-1.1-19.1 2.4-53.9-2.2-72.4s-16.4-71.6 6.7-117.5c30-59.5 96.7-69.8 96.7-69.8h202.7l11.7 7.4s50 20.5 68.6 51.8c18.6 31.2 19.3 72.2 17.2 90.3-1.9 16-9.5 42.4-10.1 56.2-.6 11.7 1.3 41.3.7 54-.6 12.9-11.8 31.4-21.5 34H72.3z" class="colorf7fafc svgShape"></path><path fill="#eaf4f9" d="M165.9 88.1h177.6V218H165.9z" class="coloreaf4f9 svgShape"></path><path fill="#bfd7e2" d="M165.9 153h177.6v2.6H165.9zM148.6 82.5h224.6v5.6H148.6zM148.6 88.1h224.6v5.6H148.6z" class="colorbfd7e2 svgShape"></path><path fill="#e1eef4" d="M201.7 88.1s7.5 41.6-16.9 84.2c0 0 10.8 14 7.3 52.1 0 0-7.5 3.4-14.2 1.9 0 0-8.8 1.5-13.3.4 0 0-9.1 2.6-16.2-1.9V88.1h53.3z" class="colore1eef4 svgShape"></path><path fill="#bfd7e2" d="M185.6 173.4c-.5-.8-.7-1.1-.7-1.1.4-.6.7-1.3 1.1-1.9-14.1 2.9-37.4 1.9-37.4 1.9v2.9c17.6 1.3 37-1.8 37-1.8z" class="colorbfd7e2 svgShape"></path><path fill="none" stroke="#bfd7e2" stroke-linecap="round" stroke-linejoin="round" stroke-miterlimit="10" stroke-width=".778" d="M158 112.7s2.2 32.4-2.6 57.7M171 85.3s3.2 32.5-5 72.5M185.9 131.8s.7 20.2-7.7 37.1M157 178.5s5 23.6 3.3 34.4M168.8 178.5s10.4 14.3 8.2 40.9M180.4 177s4.1 9.8 4.1 15.6" class="colorStrokebfd7e2 svgStroke"></path><path fill="#e1eef4" d="M320 88.1s-7.5 41.6 16.9 84.2c0 0-10.8 14-7.3 52.1 0 0 7.5 3.4 14.2 1.9 0 0 8.8 1.5 13.3.4 0 0 9.1 2.6 16.2-1.9V88.1H320z" class="colore1eef4 svgShape"></path><path fill="#bfd7e2" d="M336.2 173.4c.5-.8.7-1.1.7-1.1-.4-.6-.7-1.3-1.1-1.9 14.1 2.9 37.4 1.9 37.4 1.9v2.9c-17.7 1.3-37-1.8-37-1.8z" class="colorbfd7e2 svgShape"></path><path fill="none" stroke="#bfd7e2" stroke-linecap="round" stroke-linejoin="round" stroke-miterlimit="10" stroke-width=".778" d="M363.7 112.7s-2.2 32.4 2.6 57.7M350.8 85.3s-3.2 32.5 5 72.5M335.8 131.8s-.7 20.2 7.7 37.1M364.8 178.5s-5 23.6-3.3 34.4M353 178.5s-10.4 14.3-8.2 40.9M341.3 177s-4.1 9.8-4.1 15.6" class="colorStrokebfd7e2 svgStroke"></path><path fill="none" stroke="#d2e5ef" stroke-miterlimit="10" d="M431.1 281.4s4.2 5.9 4.2 10.7c0 4.8-4 28-4.5 43.9-.7 21.7 1.6 39.9 1.6 39.9" class="colorStroked2e5ef svgStroke"></path><path fill="none" stroke="#d2e5ef" stroke-miterlimit="10" d="M447.8 278.9s-9.3 4.9-12.7 16.3M419.2 303.9s9.8 10.3 12.5 19.6" class="colorStroked2e5ef svgStroke"></path><path fill="none" stroke="#d2e5ef" stroke-miterlimit="10" d="M414.9 311.6s6 2.4 11.9 2.1M450.4 294.2s-11.1-.4-16.6 11.9M445.2 321s-10.2 2.2-14.5 13.3M430.7 349.5c-3.4-7.2-11.5-11.2-11.5-11.2" class="colorStroked2e5ef svgStroke"></path><path fill="none" stroke="#d2e5ef" stroke-miterlimit="10" d="M419.2 348.6s5.7-3.3 11.5.8M448.2 343.8s-10.9-1-17.1 14.6" class="colorStroked2e5ef svgStroke"></path><path fill="none" stroke="#d2e5ef" stroke-miterlimit="10" d="M448.2 356.3s-9 2.2-14.5-3M421.4 364.2s6.5-1 10.5 6.2M443.2 365.7s-6.2 1.6-7.9 10.1" class="colorStroked2e5ef svgStroke"></path><path fill="#bfd7e2" d="M434 374.9h-19.5V395c0 4 3.2 7.2 7.2 7.2h24.6c4 0 7.2-3.2 7.2-7.2v-20.1H434z" class="colorbfd7e2 svgShape"></path><path fill="#d2e5ef" d="M421.1 306.1s1.4-7.4-3-10.9c-3.2-2.6-6.6-5.6-8.3-7.2-.4-.4-1.1-.1-1.1.5 0 4.4.8 17.2 12.4 17.6zM418.4 312.7s-.9-4.4-7.4-5.5c-5.7-1-8.3-2.3-9.4-3.9-.1-.2-.4-.1-.4.1 0 2.7.4 10.6 6.1 12.7 6.6 2.5 11.1-3.4 11.1-3.4zM423.5 341s1.2-5.6-3.7-8.3c-4.9-2.7-8.8-4.5-9.4-5.9 0 0-1.2 6.4 2.6 12.2 3.8 5.7 10.5 2 10.5 2zM421.3 347.8s-3.7-3.8-8.6-2.9c-4.9.8-7.9 5.9-7.9 5.9s2.6 2.3 8.7 2.3c6 0 7.8-5.3 7.8-5.3zM424.5 364.5s-4-3.9-8-4.5c-4-.6-8.7 1.6-8.7 1.6s1.7 6.1 8.3 6.6c6.6.4 8.4-3.7 8.4-3.7zM432.6 283.7s-6.8-.9-8.6-6.7c-1.8-5.8-.8-9.6-.8-9.6s6.4 2.7 8.5 5.7c2.1 3 .9 10.6.9 10.6zM445.5 280.4s1.1-6.6 6.9-8.7c5.8-2.2 9.3.8 9.3.8s-7.9 9.6-16.2 7.9zM446.7 294.7s1.2-6.5 8.5-5c7.3 1.4 11.5-.8 11.5-.8s-3.9 9-10 9.8c-6.2.8-10-4-10-4zM441.4 322.4s3.2-8.1 8.9-9.2c5.7-1.1 9.9-.8 11.8-2.9 0 0-3.3 10.6-10.3 13.2-7.1 2.6-10.4-1.1-10.4-1.1zM446.7 343.9s1.2-10 10.9-9.6c0 0-2.3 12-10.9 9.6zM445.7 356.7s2.2-10.6 16.4-7.7c0-.1-5.7 11.4-16.4 7.7zM441.4 366.6s2.6-6.4 12.1-4c0 0-2 7.5-12.1 4z" class="colord2e5ef svgShape"></path><path fill="#bfd7e2" d="M67.4 353.1h64.3v4.9H67.4z" class="colorbfd7e2 svgShape"></path><path fill="#bfd7e2" d="m73.6 324.8-8.8 77.4h-3.5l6.6-77.4zM126.4 324.8l8.8 77.4h3.5l-6.5-77.4z" class="colorbfd7e2 svgShape"></path><path fill="#d2e5ef" d="M137.3 324.8H62.7c-1.3 0-2.4-1.1-2.4-2.4v-36.6c0-1.3 1.1-2.4 2.4-2.4h74.5c1.3 0 2.4 1.1 2.4 2.4v36.6c.1 1.4-1 2.4-2.3 2.4z" class="colord2e5ef svgShape"></path><path fill="#eaf4f9" d="M135 321.8H65c-.5 0-1-.4-1-1v-33.5c0-.5.4-1 1-1h70c.5 0 1 .4 1 1v33.5c0 .6-.4 1-1 1z" class="coloreaf4f9 svgShape"></path><path fill="#d2e5ef" d="M84.8 286.4h30.4v5.8H84.8zM125.5 279.7H74.6c-.5 0-1-.4-1-1v-23.5c0-.5.4-1 1-1h50.9c.5 0 1 .4 1 1v23.5c-.1.6-.5 1-1 1z" class="colord2e5ef svgShape"></path><path fill="#bfd7e2" d="M77.4 279.7s.1 3.7 2.2 3.7 3.1-3.7 3.1-3.7h-5.3zM122.6 279.7s-.1 3.7-2.2 3.7-3.1-3.7-3.1-3.7h5.3zM79.6 254.3c.6 8 9.5 14.4 20.4 14.4 10.9 0 19.8-6.3 20.4-14.4H79.6z" class="colorbfd7e2 svgShape"></path><path fill="#eaf4f9" d="M103.7 260.6c0-2-1.7-3.7-3.7-3.7s-3.7 1.7-3.7 3.7 1.7 3.7 3.7 3.7 3.7-1.7 3.7-3.7z" class="coloreaf4f9 svgShape"></path><path fill="#aecad6" d="M90.3 238.2s-1-1.8-2.9-2c-1.8-.2-3.1.3-3.2 1.8-.1 1.5 1.4 2 3.1 2 2.2-.1 3-1.8 3-1.8zM102.6 243s-.8-2.4-3.3-3.1c-2.2-.6-4.3-.2-4.3 1.9s6.4 3.4 7.6 1.2z" class="coloraecad6 svgShape"></path><path fill="none" stroke="#aecad6" stroke-linecap="round" stroke-linejoin="round" stroke-miterlimit="10" stroke-width="1.139" d="M90.3 238.2s-1-1.8-2.9-2c-1.8-.2-3.1.3-3.2 1.8-.1 1.5 1.4 2 3.1 2 2.2-.1 3-1.8 3-1.8zM102.6 243s-.8-2.4-3.3-3.1c-2.2-.6-4.3-.2-4.3 1.9s6.4 3.4 7.6 1.2z" class="colorStrokeaecad6 svgStroke"></path><path fill="none" stroke="#aecad6" stroke-linecap="round" stroke-linejoin="round" stroke-miterlimit="10" stroke-width="1.139" d="m90.1 238.5 6.2-10.1 11.1 5.6-5 9.3" class="colorStrokeaecad6 svgStroke"></path><path fill="#aecad6" d="M109.8 210.8s2.5-5.1 8.1-3l-1.6-3.9s-6.6-1.8-8.4 3.4l1.9 3.5zM113.1 217.1s-3.7.4-4.2 3.8 5.3 1.7 5.4-1.5l-1.2-2.3z" class="coloraecad6 svgShape"></path><path fill="none" stroke="#aecad6" stroke-linecap="round" stroke-linejoin="round" stroke-miterlimit="10" stroke-width="1.139" d="M109.8 210.8s2.5-5.1 8.1-3l-1.6-3.9s-6.6-1.8-8.4 3.4l1.9 3.5zM113.1 217.1s-3.7.4-4.2 3.8 5.3 1.7 5.4-1.5l-1.2-2.3zM107.9 207.3l6.5 12.1" class="colorStrokeaecad6 svgStroke"></path><path fill="#aecad6" d="m79.8 198.8 11.5-7.1-2.6-4-11.4 7.3zM84 204.7s-4.7-.1-5.5 3c-.8 3 6.8 2.7 7-.8l-1.5-2.2zM94.5 196.6s-3.5 2-4.8 5.6c-1.2 3.6 2.5 3.4 4.4 1.2 1.7-1.9 1.8-4.7 1.8-4.7l-1.4-2.1z" class="coloraecad6 svgShape"></path><path fill="none" stroke="#aecad6" stroke-linecap="round" stroke-linejoin="round" stroke-miterlimit="10" stroke-width="1.139" d="m79.8 198.8 11.5-7.1-2.6-4-11.4 7.3zM84 204.7s-4.7-.1-5.5 3c-.8 3 6.8 2.7 7-.8l-1.5-2.2zM94.5 196.6s-3.5 2-4.8 5.6c-1.2 3.6 2.5 3.4 4.4 1.2 1.7-1.9 1.8-4.7 1.8-4.7l-1.4-2.1z" class="colorStrokeaecad6 svgStroke"></path><path fill="none" stroke="#aecad6" stroke-linecap="round" stroke-linejoin="round" stroke-miterlimit="10" stroke-width="1.139" d="M85.5 206.9 77.3 195l11.4-7.3 7.2 11.1" class="colorStrokeaecad6 svgStroke"></path><path fill="#d2e5ef" d="M396.3 112.8H449V181h-52.7z" class="colord2e5ef svgShape"></path><path fill="#eaf4f9" d="M398.6 115.2h48.1v63.4h-48.1z" class="coloreaf4f9 svgShape"></path><path fill="#bfd7e2" d="M446.7 150.6s-9.4-14.2-13.4-19.1c-.7-.9-2.1-1-3-.2-5 4.4-21.5 19.3-31.7 31v6.4h48.1v-18.1z" class="colorbfd7e2 svgShape"></path><path fill="#d2e5ef" d="M398.6 163.8s11.2-4.6 19.4-.9c8.1 3.7 13.7 4.3 18.2 1.9s8.2-2.9 10.5-1.8v15.5h-48.1v-14.7zM398.6 135.9h19.7c1.2 0 1.9-1.3 1.3-2.3-1-1.6-3.2-3.4-7.6-2.8 0 0-3.6-9.4-13.4-6.1v11.2zM419.2 122.4c0-2-1.6-3.6-3.6-3.6s-3.6 1.6-3.6 3.6 1.6 3.6 3.6 3.6 3.6-1.5 3.6-3.6zM446.7 128.1h-11.1c-.8 0-1.3-1-.7-1.6.7-.8 2.1-1.5 4.6-1.2 0 0-.1-6.1 7.2-5.3v8.1z" class="colord2e5ef svgShape"></path><path fill="#fda145" d="m390.7 361.7 10.4.8c1.3.1 2.5 1 2.8 2.3 1.8 6.4 7.2 25.1 7.4 28.4.3 4-3.5 9.4-3.5 9.4h-25.3s-1.4-10.2 11.6-11.9l-6.1-5.3 2.7-23.7zM388.7 279.7l18.8-7.2c1.1-.4 2.4 0 2.9 1.1 3.3 6.2 13.8 26.6 15.1 31.8 1.5 6.2-.6 7.2-3 7.2s-9.7-7.2-9.7-7.2l-8.9 2.6-15.2-28.3z" class="colorfda145 svgShape"></path><path fill="#79154d" d="M241.6 292s11.4.1 22.6 7c0 0 63.1-.4 64.5-.6 1.4-.1 53.3-19.5 53.3-19.5s-.1-5.2 3.6-6c3.7-.8 6.4 2.4 6.4 2.4s12.3 26.1 13.4 32.5c1.1 6.4-2.1 11.9-9.7 6.5 0 0-53.9 21.3-55.6 21.4-1.7.2-34.5.9-34.5.9l77.5 18.4s2.8-1.7 6.2-.7c3.5 1 3.3 5.7 3.2 6.9-.1 1.2-3.3 30.3-3.3 30.3s-4.7 5.8-8.3 0c0 0-130.3-28.5-160.8-39.8l21.5-59.7z" class="color79154d svgShape"></path><path fill="#fda145" d="M169.6 272.7s1.9-6.8 6.1-19l32.1 11.3-2.5 14.4s-6.1 7.2-13.7 7.6c-7.6.4-17.5-11-22-14.3zM152.3 330.5s-1.4 9.5-1.5 17c-.2 7.5 0 17.2 0 17.2h32.3v-17.1l-30.8-17.1z" class="colorfda145 svgShape"></path><path fill="#e05353" d="m165.1 286 4.6-13.3s19 10.5 35.7 6.7l26.1 9.8s2.5-3.2 6.4-2.6c3.9.6 3.8 5.4 3.8 5.4l-16.4 64.5s-1.1 3.2-4.3 2.9c-3.2-.4-6.5-5-6.5-5l-43.7-4.8s-16.5-12.2-18.5-19c0 0 3.2-17.2 3.8-19.8.6-2.7 11.2-12.3 9-24.8z" class="colore05353 svgShape"></path><path fill="#f9c1c0" d="M148.7 263.8s8.1 1.7 5.7 17.1l.4 3.6 8.8 4.5 1.4-2.9s9 6.6 8 16.6c-1 10-7.1 12.7-9.8 12.9-2.8.1-7.2-4.8-7.2-4.8l1.1-4.6-6.5-4.1s-4.9 6.4-16.9 5.8c-10.9-.6-16.7-9.1-16.7-9.1l-4.9-2.3v-18.7l15-11.4c0-.1 13.4-3.1 21.6-2.6z" class="colorf9c1c0 svgShape"></path><path fill="#f4807d" d="M147 268s1.4-1.2 3 0 2 6.4 1.1 7.1c-1 .8-4.2.6-4.1-7.1zM154.5 293.4s1.9 5.9-.8 10.5l-3-1.9s3.4-2.8 3.8-8.6z" opacity=".33" class="colorf4807d svgShape"></path><path fill="#79154d" d="M125.8 272.9s5.5 3.9 15.6 2.1c0 0-3.2-10.4 7.3-11.2 0 0-8.6-12.4-23-5 0 0-11.6 2.8-16.2 13.3s-2.6 22 .6 25.1c3.1 3 7 1.6 7 1.6s-2.7-2.9-3.2-5.1c0 0 1.5 1.4 3.7.1 2.2-1.2 1-2.7.1-3.9-1-1.2-1.2-4-.8-5.4 0-.1 6.3-2.2 8.9-11.6z" class="color79154d svgShape"></path><path fill="#79154d" d="M125 287.6s.2-4.1 2.8-6.2c0 0-1.5-.2-2.3.3-.9.5-2.2 2.8-1.9 5.7 0-.1.5.4 1.4.2zM119.5 298.5s0-2.1 1.7-3.2c0 0 1-.1 1.6.5 0 0-1.8 1.6-2.1 3.8.1-.1-.5 0-1.2-1.1zM131.3 288.5c-.3.6-1.3.6-2.2.2-.9-.5-1.5-1.3-1.2-1.9.3-.6 1.3-.6 2.2-.2.9.5 1.5 1.3 1.2 1.9zM125.6 299.9c-.3.6-1.3.6-2.2.2-.9-.5-1.5-1.3-1.2-1.9.3-.6 1.3-.6 2.2-.2.9.5 1.5 1.3 1.2 1.9z" class="color79154d svgShape"></path><path fill="none" stroke="#993370" stroke-linecap="round" stroke-linejoin="round" stroke-miterlimit="10" stroke-width="1.153" d="M111.1 288.3s1.2 6.7 5.8 5.7M114.7 284.9s7.1-1.1 10.1-9.2" class="colorStroke993370 svgStroke"></path><path fill="none" stroke="#e26060" stroke-linecap="round" stroke-linejoin="round" stroke-miterlimit="10" d="m127.1 294.5 2.7 1.3s.2 3.5 1.9 4.1c2.1.7 2.7-1.8 2.7-1.8" class="colorStrokee26060 svgStroke"></path><path fill="#e26060" d="M141.2 285.8c2.2 4.2 2.5 9.2 1.5 13.8-.1.3-.3.4-.6.4-.3-.1-.4-.3-.4-.6 1-4.4.8-9.2-1.2-13.2-.2-.4.5-.8.7-.4z" class="colore26060 svgShape"></path><path fill="none" stroke="#e26060" stroke-linecap="round" stroke-linejoin="round" stroke-miterlimit="10" d="M147.2 267.3s-1.5 5.3 2.3 8.4M149.9 269.5s-2.4.7-2.5 3.2M150.1 302.6s4.4-3.6 4.4-9.9" class="colorStrokee26060 svgStroke"></path><path fill="#f9c1c0" d="M150.7 364.6s14.3-7.7 32.3 0c0 0 1.4 22.9-6 30.1-7.4 7.2-23.4 7.9-23.4 7.9s-38.6.2-49.6-3.5c0 0-7.3-1-6.7-8.1 0 0-2.2-4-1-7.2 0 0-1.5-4.6.6-7.3 0 0-.4-5.9 1.7-6.5 2.1-.6 5.9.3 5.9.3s1.8-3.6 4-4c2.2-.4 12.6 7.2 12.6 7.2l29.7-1.1-.1-7.8zM175.8 253.8s15.9 11.8 32.1 11.3c0 0 7.4-20.7 7.9-31 .6-10.3 1.5-40.8 1.5-47.2 0-6.5-4.1-15.5-4.1-15.5s-.1-11.7-.1-13.3c0-1.6-2.1-4.2-4.4-4.2 0 0-1.1-2.8-5.2-1.8 0 0-.9-2.4-3.7-2-.7.1-1.3.7-1.4 1.5l-1.9 13.5-1.5-14.3c-.1-.7-.6-1.3-1.3-1.4-1.2-.2-3.1-.1-3.7 2.1l-.2 16.2s-2-9.6-5.3-8.8c-3.3.8-1.5 11.4.7 15.4 0 0 1.6 7.3 3.7 10.2 0 0-4.8 37.8-5.8 43.9-1 6-4.9 21.3-7.3 25.4z" class="colorf9c1c0 svgShape"></path><path fill="none" stroke="#e26060" stroke-linecap="round" stroke-linejoin="round" stroke-miterlimit="10" d="M104.5 370.3s-2.2 3.8-2.4 7.2c-.2 3.4 1 4.2 2.4 4.1 1.4-.2 5.2-5.6 5.2-5.6s2 10.6 6.9 12.6M97.3 376.5h4.8" class="colorStrokee26060 svgStroke"></path><path fill="none" stroke="#e26060" stroke-linecap="round" stroke-linejoin="round" stroke-miterlimit="10" d="M96.9 384.1h11.3s1.5-2.1 0-6.1M97.3 390.6h10.2s1.9-2 .6-6.5" class="colorStrokee26060 svgStroke"></path><path fill="none" stroke="#e26060" stroke-linecap="round" stroke-linejoin="round" stroke-miterlimit="10" d="m100.6 397.8 6.5-.7s2.4-2.2.4-6.6M198.4 172.7s-2.5-3-8.6-5.1c0 0-1-3.8-2.2-6.4M203.5 152l-.5 15M207.8 168.3l.9-14.4" class="colorStrokee26060 svgStroke"></path><path fill="none" stroke="#b21f1f" stroke-linecap="round" stroke-miterlimit="10" stroke-width="1.153" d="m165.1 345.1 5.6 4.5 43.7 4.8s2.7 4.8 6.5 5c3.8.2 4.3-2.9 4.3-2.9l11.2-43.8" class="colorStrokeb21f1f svgStroke"></path><path fill="none" stroke="#fff" stroke-linecap="round" stroke-miterlimit="10" stroke-width="1.153" d="M183.1 306s3.6-2.4 5.3 1.7c1.7 4.1-3.7 14.6-6.2 15.8-3.6 1.7-4.2-3.2-4.2-3.2" class="colorStrokefff svgStroke"></path><path fill="none" stroke="#fff" stroke-linecap="round" stroke-miterlimit="10" stroke-width="1.153" d="M196.5 312s-1.2-4.2-5.1-2.2c-3.9 2-6.7 13.5-5.6 16 1.6 3.6 5.3.3 5.3.3" class="colorStrokefff svgStroke"></path><path fill="none" stroke="#59113c" stroke-linecap="round" stroke-miterlimit="10" stroke-width="1.153" d="m255.6 340.5 2.8-5.5s60.4 3 81.8.8M345 346.1l-39.4-9.3M390 297.9l-7.3-18.2M381.3 380.9l2.6-24.2" class="colorStroke59113c svgStroke"></path><path fill="none" stroke="#6d9faf" stroke-linecap="round" stroke-linejoin="round" stroke-miterlimit="10" stroke-width="1.217" d="M44.2 402.2h409.9" class="colorStroke6d9faf svgStroke"></path><circle cx="297.8" cy="193.3" r="25.7" fill="#e05353" transform="rotate(-45.001 297.845 193.352)" class="colore05353 svgShape"></circle><path fill="none" stroke="#fff" stroke-linecap="round" stroke-linejoin="round" stroke-miterlimit="10" stroke-width="1.1" d="M310.6 193.2c0 7-5.7 12.7-12.7 12.7-7 0-12.7-5.7-12.7-12.7 0-7 5.7-12.7 12.7-12.7 7 0 12.7 5.6 12.7 12.7z" class="colorStrokefff svgStroke"></path><path fill="#ffffff" d="M299.9 180.5h-4v-2.6c0-.7.6-1.4 1.4-1.4h1.3c.7 0 1.4.6 1.4 1.4v2.6zM288.3 183.8l-1.1 1.4-1.5-1.2c-.3-.3-.4-.8-.1-1.1l.1-.1c.3-.3.8-.4 1.1-.1l1.5 1.1z" class="colorfff svgShape"></path><path fill="none" stroke="#fff" stroke-linecap="round" stroke-linejoin="round" stroke-miterlimit="10" stroke-width="1.1" d="M297.9 185.8v7.4h6.7" class="colorStrokefff svgStroke"></path></svg></g></svg>